<svg width="55" height="55" viewBox="0 0 55 55" fill="none" xmlns="http://www.w3.org/2000/svg">
<path d="M25.2083 38.9583H29.7917V29.7916H38.9583V25.2083H29.7917V16.0416H25.2083V25.2083H16.0417V29.7916H25.2083V38.9583ZM27.5 50.4166C24.3299 50.4166 21.3507 49.815 18.5625 48.6119C15.7743 47.4088 13.349 45.776 11.2865 43.7135C9.22396 41.651 7.59115 39.2256 6.38802 36.4374C5.1849 33.6492 4.58334 30.6701 4.58334 27.4999C4.58334 24.3298 5.1849 21.3506 6.38802 18.5624C7.59115 15.7742 9.22396 13.3489 11.2865 11.2864C13.349 9.22388 15.7743 7.59106 18.5625 6.38794C21.3507 5.18481 24.3299 4.58325 27.5 4.58325C30.6701 4.58325 33.6493 5.18481 36.4375 6.38794C39.2257 7.59106 41.651 9.22388 43.7135 11.2864C45.776 13.3489 47.4089 15.7742 48.612 18.5624C49.8151 21.3506 50.4167 24.3298 50.4167 27.4999C50.4167 30.6701 49.8151 33.6492 48.612 36.4374C47.4089 39.2256 45.776 41.651 43.7135 43.7135C41.651 45.776 39.2257 47.4088 36.4375 48.6119C33.6493 49.815 30.6701 50.4166 27.5 50.4166ZM27.5 45.8333C32.6181 45.8333 36.9531 44.0572 40.5052 40.5051C44.0573 36.953 45.8333 32.618 45.8333 27.4999C45.8333 22.3819 44.0573 18.0468 40.5052 14.4947C36.9531 10.9426 32.6181 9.16658 27.5 9.16658C22.3819 9.16658 18.0469 10.9426 14.4948 14.4947C10.9427 18.0468 9.16667 22.3819 9.16667 27.4999C9.16667 32.618 10.9427 36.953 14.4948 40.5051C18.0469 44.0572 22.3819 45.8333 27.5 45.8333Z" fill="black"/>
</svg>
