<svg width="55" height="55" viewBox="0 0 55 55" fill="none" xmlns="http://www.w3.org/2000/svg">
<path d="M11.4583 43.5417H14.724L37.125 21.1406L33.8594 17.875L11.4583 40.276V43.5417ZM6.875 48.125V38.3854L37.125 8.19271C37.5833 7.77257 38.0894 7.44792 38.6432 7.21875C39.197 6.98958 39.7795 6.875 40.3906 6.875C41.0017 6.875 41.5938 6.98958 42.1667 7.21875C42.7396 7.44792 43.2361 7.79167 43.6562 8.25L46.8073 11.4583C47.2656 11.8785 47.5998 12.375 47.8099 12.9479C48.02 13.5208 48.125 14.0938 48.125 14.6667C48.125 15.2778 48.02 15.8602 47.8099 16.4141C47.5998 16.9679 47.2656 17.474 46.8073 17.9323L16.6146 48.125H6.875ZM35.4635 19.5365L33.8594 17.875L37.125 21.1406L35.4635 19.5365Z" fill="black"/>
</svg>
