<svg width="37" height="11" viewBox="0 0 37 11" fill="none" xmlns="http://www.w3.org/2000/svg">
<path d="M4.75 10.0834C3.48958 10.0834 2.41059 9.63463 1.51302 8.73706C0.615449 7.83949 0.166664 6.7605 0.166664 5.50008C0.166664 4.23966 0.615449 3.16067 1.51302 2.2631C2.41059 1.36553 3.48958 0.916748 4.75 0.916748C6.01041 0.916748 7.08941 1.36553 7.98698 2.2631C8.88455 3.16067 9.33333 4.23966 9.33333 5.50008C9.33333 6.7605 8.88455 7.83949 7.98698 8.73706C7.08941 9.63463 6.01041 10.0834 4.75 10.0834ZM18.5 10.0834C17.2396 10.0834 16.1606 9.63463 15.263 8.73706C14.3654 7.83949 13.9167 6.7605 13.9167 5.50008C13.9167 4.23966 14.3654 3.16067 15.263 2.2631C16.1606 1.36553 17.2396 0.916748 18.5 0.916748C19.7604 0.916748 20.8394 1.36553 21.737 2.2631C22.6345 3.16067 23.0833 4.23966 23.0833 5.50008C23.0833 6.7605 22.6345 7.83949 21.737 8.73706C20.8394 9.63463 19.7604 10.0834 18.5 10.0834ZM32.25 10.0834C30.9896 10.0834 29.9106 9.63463 29.013 8.73706C28.1154 7.83949 27.6667 6.7605 27.6667 5.50008C27.6667 4.23966 28.1154 3.16067 29.013 2.2631C29.9106 1.36553 30.9896 0.916748 32.25 0.916748C33.5104 0.916748 34.5894 1.36553 35.487 2.2631C36.3845 3.16067 36.8333 4.23966 36.8333 5.50008C36.8333 6.7605 36.3845 7.83949 35.487 8.73706C34.5894 9.63463 33.5104 10.0834 32.25 10.0834Z" fill="black"/>
</svg>
